<svg xmlns="http://www.w3.org/2000/svg" xmlns:xlink="http://www.w3.org/1999/xlink" width="500" zoomAndPan="magnify" viewBox="0 0 375 374.999991" height="500" preserveAspectRatio="xMidYMid meet" version="1.0"><defs><clipPath id="6c5c770999"><path d="M 9 6.476562 L 371 6.476562 L 371 368.726562 L 9 368.726562 Z M 9 6.476562 " clip-rule="nonzero"/></clipPath></defs><path fill="#fc5d3d" d="M 366.53125 187.675781 C 366.53125 190.574219 366.457031 193.472656 366.316406 196.367188 C 366.175781 199.261719 365.960938 202.152344 365.679688 205.035156 C 365.394531 207.921875 365.039062 210.796875 364.617188 213.664062 C 364.191406 216.53125 363.695312 219.386719 363.132812 222.226562 C 362.566406 225.070312 361.933594 227.898438 361.230469 230.710938 C 360.527344 233.519531 359.753906 236.3125 358.914062 239.085938 C 358.074219 241.859375 357.167969 244.613281 356.191406 247.339844 C 355.21875 250.070312 354.175781 252.773438 353.066406 255.453125 C 351.960938 258.128906 350.789062 260.777344 349.550781 263.398438 C 348.3125 266.019531 347.011719 268.605469 345.648438 271.164062 C 344.285156 273.71875 342.859375 276.238281 341.371094 278.726562 C 339.882812 281.210938 338.335938 283.660156 336.726562 286.070312 C 335.117188 288.480469 333.453125 290.847656 331.726562 293.175781 C 330.003906 295.503906 328.222656 297.789062 326.386719 300.03125 C 324.550781 302.269531 322.664062 304.464844 320.71875 306.613281 C 318.773438 308.761719 316.78125 310.859375 314.734375 312.910156 C 312.6875 314.957031 310.589844 316.957031 308.449219 318.902344 C 306.304688 320.847656 304.113281 322.742188 301.875 324.582031 C 299.636719 326.417969 297.355469 328.203125 295.03125 329.929688 C 292.707031 331.65625 290.34375 333.324219 287.9375 334.933594 C 285.53125 336.542969 283.085938 338.09375 280.601562 339.585938 C 278.121094 341.074219 275.601562 342.503906 273.050781 343.867188 C 270.496094 345.234375 267.914062 346.539062 265.296875 347.777344 C 262.679688 349.015625 260.035156 350.191406 257.363281 351.300781 C 254.6875 352.410156 251.988281 353.453125 249.265625 354.429688 C 246.539062 355.40625 243.792969 356.3125 241.023438 357.15625 C 238.253906 357.996094 235.464844 358.769531 232.65625 359.472656 C 229.847656 360.175781 227.027344 360.8125 224.1875 361.378906 C 221.347656 361.945312 218.5 362.4375 215.636719 362.863281 C 212.773438 363.289062 209.902344 363.644531 207.019531 363.929688 C 204.140625 364.210938 201.253906 364.425781 198.363281 364.566406 C 195.472656 364.710938 192.582031 364.78125 189.6875 364.78125 C 186.792969 364.78125 183.902344 364.710938 181.011719 364.566406 C 178.121094 364.425781 175.234375 364.210938 172.355469 363.929688 C 169.472656 363.644531 166.601562 363.289062 163.738281 362.863281 C 160.875 362.4375 158.027344 361.945312 155.1875 361.378906 C 152.347656 360.8125 149.527344 360.175781 146.71875 359.472656 C 143.910156 358.769531 141.121094 357.996094 138.351562 357.15625 C 135.582031 356.3125 132.835938 355.40625 130.113281 354.429688 C 127.386719 353.453125 124.6875 352.410156 122.011719 351.300781 C 119.339844 350.191406 116.695312 349.015625 114.078125 347.777344 C 111.460938 346.539062 108.878906 345.234375 106.324219 343.867188 C 103.773438 342.503906 101.253906 341.074219 98.773438 339.585938 C 96.289062 338.09375 93.847656 336.542969 91.441406 334.933594 C 89.035156 333.324219 86.667969 331.65625 84.34375 329.929688 C 82.019531 328.203125 79.738281 326.417969 77.5 324.582031 C 75.261719 322.742188 73.074219 320.847656 70.929688 318.902344 C 68.785156 316.957031 66.6875 314.957031 64.640625 312.910156 C 62.59375 310.859375 60.601562 308.761719 58.65625 306.613281 C 56.714844 304.464844 54.824219 302.269531 52.988281 300.03125 C 51.152344 297.789062 49.371094 295.503906 47.648438 293.175781 C 45.921875 290.847656 44.257812 288.480469 42.648438 286.070312 C 41.042969 283.660156 39.492188 281.210938 38.003906 278.726562 C 36.519531 276.238281 35.089844 273.71875 33.726562 271.164062 C 32.363281 268.605469 31.0625 266.019531 29.824219 263.398438 C 28.585938 260.777344 27.414062 258.128906 26.308594 255.453125 C 25.199219 252.773438 24.160156 250.070312 23.183594 247.339844 C 22.207031 244.613281 21.300781 241.859375 20.460938 239.085938 C 19.621094 236.3125 18.847656 233.519531 18.144531 230.710938 C 17.441406 227.898438 16.808594 225.070312 16.246094 222.226562 C 15.679688 219.386719 15.183594 216.53125 14.761719 213.664062 C 14.335938 210.796875 13.980469 207.921875 13.699219 205.035156 C 13.414062 202.152344 13.203125 199.261719 13.058594 196.367188 C 12.917969 193.472656 12.847656 190.574219 12.847656 187.675781 C 12.847656 184.777344 12.917969 181.882812 13.058594 178.984375 C 13.203125 176.089844 13.414062 173.203125 13.699219 170.316406 C 13.980469 167.433594 14.335938 164.554688 14.761719 161.6875 C 15.183594 158.824219 15.679688 155.96875 16.246094 153.125 C 16.808594 150.28125 17.441406 147.453125 18.144531 144.644531 C 18.847656 141.832031 19.621094 139.039062 20.460938 136.265625 C 21.300781 133.492188 22.207031 130.742188 23.183594 128.011719 C 24.160156 125.28125 25.199219 122.578125 26.308594 119.902344 C 27.414062 117.222656 28.585938 114.574219 29.824219 111.953125 C 31.0625 109.332031 32.363281 106.746094 33.726562 104.1875 C 35.089844 101.632812 36.519531 99.113281 38.003906 96.625 C 39.492188 94.140625 41.042969 91.691406 42.648438 89.28125 C 44.257812 86.871094 45.921875 84.503906 47.648438 82.175781 C 49.371094 79.847656 51.152344 77.5625 52.988281 75.320312 C 54.824219 73.082031 56.714844 70.886719 58.65625 68.738281 C 60.601562 66.59375 62.59375 64.492188 64.640625 62.445312 C 66.6875 60.394531 68.785156 58.398438 70.929688 56.449219 C 73.074219 54.503906 75.261719 52.609375 77.5 50.773438 C 79.738281 48.933594 82.019531 47.152344 84.34375 45.425781 C 86.667969 43.699219 89.035156 42.027344 91.441406 40.417969 C 93.847656 38.808594 96.289062 37.257812 98.773438 35.769531 C 101.253906 34.277344 103.773438 32.851562 106.324219 31.484375 C 108.878906 30.117188 111.460938 28.8125 114.078125 27.574219 C 116.695312 26.335938 119.339844 25.160156 122.011719 24.050781 C 124.6875 22.941406 127.386719 21.902344 130.113281 20.925781 C 132.835938 19.949219 135.582031 19.039062 138.351562 18.199219 C 141.121094 17.355469 143.910156 16.582031 146.71875 15.878906 C 149.527344 15.175781 152.347656 14.539062 155.1875 13.972656 C 158.027344 13.410156 160.875 12.914062 163.738281 12.488281 C 166.601562 12.0625 169.472656 11.707031 172.355469 11.425781 C 175.234375 11.140625 178.121094 10.925781 181.011719 10.785156 C 183.902344 10.640625 186.792969 10.570312 189.6875 10.570312 C 192.582031 10.570312 195.472656 10.640625 198.363281 10.785156 C 201.253906 10.925781 204.140625 11.140625 207.019531 11.425781 C 209.902344 11.707031 212.773438 12.0625 215.636719 12.488281 C 218.5 12.914062 221.347656 13.410156 224.1875 13.972656 C 227.027344 14.539062 229.847656 15.175781 232.65625 15.878906 C 235.464844 16.582031 238.253906 17.355469 241.023438 18.199219 C 243.792969 19.039062 246.539062 19.949219 249.265625 20.925781 C 251.988281 21.902344 254.6875 22.941406 257.363281 24.050781 C 260.035156 25.160156 262.679688 26.335938 265.296875 27.574219 C 267.914062 28.8125 270.496094 30.117188 273.050781 31.484375 C 275.601562 32.851562 278.121094 34.277344 280.601562 35.769531 C 283.085938 37.257812 285.53125 38.808594 287.9375 40.417969 C 290.34375 42.027344 292.707031 43.699219 295.03125 45.425781 C 297.355469 47.152344 299.636719 48.933594 301.875 50.773438 C 304.113281 52.609375 306.304688 54.503906 308.449219 56.449219 C 310.589844 58.398438 312.6875 60.394531 314.734375 62.445312 C 316.78125 64.492188 318.773438 66.59375 320.71875 68.738281 C 322.664062 70.886719 324.550781 73.082031 326.386719 75.320312 C 328.222656 77.5625 330.003906 79.847656 331.726562 82.175781 C 333.453125 84.503906 335.117188 86.871094 336.726562 89.28125 C 338.335938 91.691406 339.882812 94.140625 341.371094 96.625 C 342.859375 99.113281 344.285156 101.632812 345.648438 104.1875 C 347.011719 106.746094 348.3125 109.332031 349.550781 111.953125 C 350.789062 114.574219 351.960938 117.222656 353.066406 119.902344 C 354.175781 122.578125 355.21875 125.28125 356.191406 128.011719 C 357.167969 130.742188 358.074219 133.492188 358.914062 136.265625 C 359.753906 139.039062 360.527344 141.832031 361.230469 144.644531 C 361.933594 147.453125 362.566406 150.28125 363.132812 153.125 C 363.695312 155.96875 364.191406 158.824219 364.617188 161.6875 C 365.039062 164.554688 365.394531 167.433594 365.679688 170.316406 C 365.960938 173.203125 366.175781 176.089844 366.316406 178.984375 C 366.457031 181.882812 366.53125 184.777344 366.53125 187.675781 Z M 366.53125 187.675781 " fill-opacity="1" fill-rule="nonzero"/><path fill="#b25035" d="M 277.417969 248.042969 L 277.417969 264.457031 C 277.417969 270.675781 272.742188 276.113281 266.5625 276.527344 C 265.925781 276.570312 137.761719 276.558594 137.125 276.558594 C 133.867188 276.558594 130.914062 275.226562 128.777344 273.085938 L 121.472656 280.398438 C 117.476562 276.425781 114.96875 270.914062 114.96875 264.707031 L 114.96875 238.101562 L 125.292969 227.757812 L 125.292969 131.742188 L 106.382812 131.742188 C 103.933594 131.742188 101.957031 129.761719 101.957031 127.308594 L 101.957031 110.878906 C 101.957031 104.628906 106.691406 99.179688 112.933594 98.808594 C 113.476562 98.78125 241.703125 98.796875 242.25 98.796875 C 245.511719 98.796875 248.460938 100.125 250.597656 102.265625 L 250.613281 102.265625 L 257.917969 94.953125 C 261.929688 98.957031 264.40625 104.484375 264.40625 110.644531 L 264.40625 137.253906 L 254.082031 147.59375 L 254.082031 243.609375 L 272.992188 243.609375 C 275.441406 243.609375 277.417969 245.589844 277.417969 248.042969 Z M 277.417969 248.042969 " fill-opacity="1" fill-rule="nonzero"/><path fill="#f0f0f0" d="M 277.433594 75.394531 L 257.917969 94.953125 L 250.613281 102.265625 L 250.597656 102.265625 C 248.460938 100.125 245.511719 98.796875 242.25 98.796875 C 241.703125 98.796875 113.476562 98.78125 112.933594 98.808594 C 106.691406 99.179688 101.957031 104.628906 101.957031 110.878906 L 101.957031 127.308594 C 101.957031 129.761719 103.933594 131.742188 106.382812 131.742188 L 125.292969 131.742188 L 125.292969 227.757812 L 77.570312 275.550781 C 4.535156 182.195312 71.773438 45.371094 189.363281 45.105469 C 222.585938 45.03125 253.179688 56.363281 277.433594 75.394531 Z M 277.433594 75.394531 " fill-opacity="1" fill-rule="nonzero"/><path fill="#afafaf" d="M 114.96875 238.101562 L 114.96875 142.082031 L 106.382812 142.082031 C 98.253906 142.082031 91.628906 135.449219 91.628906 127.308594 L 91.628906 110.878906 C 91.628906 99 100.71875 89.175781 112.328125 88.484375 C 113.375 88.4375 171.320312 88.453125 242.25 88.453125 C 248.34375 88.453125 253.890625 90.933594 257.917969 94.953125 L 250.613281 102.265625 L 250.597656 102.265625 C 248.460938 100.125 245.511719 98.796875 242.25 98.796875 C 241.703125 98.796875 113.476562 98.78125 112.933594 98.808594 C 106.691406 99.179688 101.957031 104.628906 101.957031 110.878906 L 101.957031 127.308594 C 101.957031 129.761719 103.933594 131.742188 106.382812 131.742188 L 125.292969 131.742188 L 125.292969 227.757812 Z M 114.96875 238.101562 " fill-opacity="1" fill-rule="nonzero"/><path fill="#f0f0f0" d="M 190.011719 330.246094 C 156.789062 330.320312 126.195312 318.988281 101.941406 299.960938 L 128.777344 273.085938 C 130.914062 275.226562 133.867188 276.558594 137.125 276.558594 C 137.761719 276.558594 265.925781 276.570312 266.5625 276.527344 C 272.742188 276.113281 277.417969 270.675781 277.417969 264.457031 L 277.417969 248.042969 C 277.417969 245.589844 275.441406 243.609375 272.992188 243.609375 L 254.082031 243.609375 L 254.082031 147.59375 L 264.40625 137.253906 L 301.804688 99.800781 C 374.84375 193.15625 307.601562 329.980469 190.011719 330.246094 Z M 190.011719 330.246094 " fill-opacity="1" fill-rule="nonzero"/><path fill="#afafaf" d="M 287.746094 248.042969 L 287.746094 264.457031 C 287.746094 276.246094 278.746094 286.070312 267.253906 286.839844 C 266.089844 286.929688 189.394531 286.898438 137.125 286.898438 C 131.09375 286.898438 125.515625 284.445312 121.472656 280.398438 L 128.777344 273.085938 C 130.914062 275.226562 133.867188 276.558594 137.125 276.558594 C 137.761719 276.558594 265.925781 276.570312 266.5625 276.527344 C 272.742188 276.113281 277.417969 270.675781 277.417969 264.457031 L 277.417969 248.042969 C 277.417969 245.589844 275.441406 243.609375 272.992188 243.609375 L 254.082031 243.609375 L 254.082031 147.59375 L 264.40625 137.253906 L 264.40625 233.269531 L 272.992188 233.269531 C 281.121094 233.269531 287.746094 239.902344 287.746094 248.042969 Z M 287.746094 248.042969 " fill-opacity="1" fill-rule="nonzero"/><path fill="#f0c020" d="M 277.417969 248.042969 L 277.417969 264.457031 C 277.417969 270.675781 272.742188 276.113281 266.5625 276.527344 C 265.925781 276.570312 137.761719 276.558594 137.125 276.558594 C 133.867188 276.558594 130.914062 275.226562 128.777344 273.085938 C 126.621094 270.957031 125.292969 267.988281 125.292969 264.707031 L 125.292969 131.742188 L 106.382812 131.742188 C 103.933594 131.742188 101.957031 129.761719 101.957031 127.308594 L 101.957031 110.878906 C 101.957031 104.628906 106.691406 99.179688 112.933594 98.808594 C 113.476562 98.78125 241.703125 98.796875 242.25 98.796875 C 245.511719 98.796875 248.460938 100.125 250.597656 102.265625 L 250.613281 102.265625 C 252.753906 104.410156 254.082031 107.363281 254.082031 110.644531 L 254.082031 243.609375 L 272.992188 243.609375 C 275.441406 243.609375 277.417969 245.589844 277.417969 248.042969 Z M 277.417969 248.042969 " fill-opacity="1" fill-rule="nonzero"/><path fill="#ffcbc3" d="M 189.6875 353.625 C 152.53125 353.625 116.105469 341.015625 87.117188 318.121094 C 83.292969 315.101562 87.847656 309.296875 91.683594 312.320312 C 119.378906 334.191406 154.183594 346.238281 189.6875 346.238281 C 277.324219 346.238281 348.015625 275.464844 348.015625 187.675781 C 348.015625 145.253906 331.566406 105.417969 301.695312 75.503906 C 300.253906 74.058594 300.253906 71.722656 301.695312 70.28125 C 303.136719 68.835938 305.472656 68.835938 306.910156 70.28125 C 338.175781 101.589844 355.390625 143.28125 355.390625 187.675781 C 355.390625 279.527344 281.425781 353.625 189.6875 353.625 Z M 75.707031 308.234375 C 74.613281 307.199219 73.535156 306.144531 72.464844 305.074219 C 71.023438 303.628906 71.023438 301.292969 72.464844 299.851562 C 73.90625 298.40625 76.242188 298.40625 77.679688 299.851562 C 78.703125 300.875 79.738281 301.882812 80.78125 302.871094 C 82.257812 304.277344 82.320312 306.613281 80.921875 308.09375 C 79.523438 309.574219 77.1875 309.640625 75.707031 308.234375 Z M 75.707031 308.234375 " fill-opacity="1" fill-rule="nonzero"/><path fill="#f8e5b0" d="M 239.328125 264.871094 C 237.292969 264.871094 235.640625 263.21875 235.640625 261.175781 L 235.640625 117.261719 C 167.375 117.257812 184.085938 117.257812 154.652344 117.265625 C 152.617188 117.265625 150.964844 115.609375 150.964844 113.570312 C 150.964844 111.53125 152.617188 109.878906 154.652344 109.878906 C 184.089844 109.871094 166.742188 109.871094 239.332031 109.875 C 241.367188 109.875 243.019531 111.527344 243.019531 113.570312 L 243.019531 261.175781 C 243.015625 263.21875 241.367188 264.871094 239.328125 264.871094 Z M 135.472656 117.269531 C 133.4375 117.269531 131.785156 115.617188 131.785156 113.578125 C 131.785156 111.539062 133.4375 109.882812 135.472656 109.882812 L 139.898438 109.882812 C 141.933594 109.882812 143.585938 111.535156 143.585938 113.574219 C 143.585938 115.613281 141.9375 117.269531 139.902344 117.269531 Z M 135.472656 117.269531 " fill-opacity="1" fill-rule="nonzero"/><path fill="#000000" d="M 171.617188 139.082031 L 207.757812 139.082031 C 209.796875 139.082031 211.445312 137.429688 211.445312 135.40625 C 211.445312 133.367188 209.796875 131.710938 207.757812 131.710938 L 171.617188 131.710938 C 169.582031 131.710938 167.929688 133.367188 167.929688 135.40625 C 167.929688 137.429688 169.582031 139.082031 171.617188 139.082031 Z M 171.617188 139.082031 " fill-opacity="1" fill-rule="nonzero"/><path fill="#000000" d="M 175.039062 156.414062 C 175.039062 158.453125 176.691406 160.109375 178.726562 160.109375 L 225.09375 160.109375 C 227.128906 160.109375 228.78125 158.453125 228.78125 156.414062 C 228.78125 154.375 227.128906 152.71875 225.09375 152.71875 L 178.726562 152.71875 C 176.691406 152.71875 175.039062 154.375 175.039062 156.414062 Z M 175.039062 156.414062 " fill-opacity="1" fill-rule="nonzero"/><path fill="#000000" d="M 154.28125 160.109375 L 162.691406 160.109375 C 164.726562 160.109375 166.378906 158.453125 166.378906 156.414062 C 166.378906 154.375 164.726562 152.71875 162.691406 152.71875 L 154.28125 152.71875 C 152.246094 152.71875 150.59375 154.375 150.59375 156.414062 C 150.59375 158.453125 152.246094 160.109375 154.28125 160.109375 Z M 154.28125 160.109375 " fill-opacity="1" fill-rule="nonzero"/><path fill="#000000" d="M 225.09375 173.449219 L 178.726562 173.449219 C 176.691406 173.449219 175.039062 175.117188 175.039062 177.140625 C 175.039062 179.179688 176.691406 180.835938 178.726562 180.835938 L 225.09375 180.835938 C 227.128906 180.835938 228.78125 179.179688 228.78125 177.140625 C 228.78125 175.117188 227.128906 173.449219 225.09375 173.449219 Z M 225.09375 173.449219 " fill-opacity="1" fill-rule="nonzero"/><path fill="#000000" d="M 154.28125 180.835938 L 162.691406 180.835938 C 164.726562 180.835938 166.378906 179.179688 166.378906 177.140625 C 166.378906 175.117188 164.726562 173.449219 162.691406 173.449219 L 154.28125 173.449219 C 152.246094 173.449219 150.59375 175.117188 150.59375 177.140625 C 150.59375 179.179688 152.246094 180.835938 154.28125 180.835938 Z M 154.28125 180.835938 " fill-opacity="1" fill-rule="nonzero"/><path fill="#000000" d="M 225.09375 194.191406 L 178.726562 194.191406 C 176.691406 194.191406 175.039062 195.847656 175.039062 197.886719 C 175.039062 199.925781 176.691406 201.578125 178.726562 201.578125 L 225.09375 201.578125 C 227.128906 201.578125 228.78125 199.925781 228.78125 197.886719 C 228.78125 195.847656 227.128906 194.191406 225.09375 194.191406 Z M 225.09375 194.191406 " fill-opacity="1" fill-rule="nonzero"/><path fill="#000000" d="M 154.28125 201.578125 L 162.691406 201.578125 C 164.726562 201.578125 166.378906 199.925781 166.378906 197.886719 C 166.378906 195.847656 164.726562 194.191406 162.691406 194.191406 L 154.28125 194.191406 C 152.246094 194.191406 150.59375 195.847656 150.59375 197.886719 C 150.59375 199.925781 152.246094 201.578125 154.28125 201.578125 Z M 154.28125 201.578125 " fill-opacity="1" fill-rule="nonzero"/><path fill="#000000" d="M 225.09375 214.917969 L 178.726562 214.917969 C 176.691406 214.917969 175.039062 216.574219 175.039062 218.613281 C 175.039062 220.652344 176.691406 222.304688 178.726562 222.304688 L 225.09375 222.304688 C 227.128906 222.304688 228.78125 220.652344 228.78125 218.613281 C 228.78125 216.574219 227.128906 214.917969 225.09375 214.917969 Z M 225.09375 214.917969 " fill-opacity="1" fill-rule="nonzero"/><path fill="#000000" d="M 154.28125 222.304688 L 162.691406 222.304688 C 164.726562 222.304688 166.378906 220.652344 166.378906 218.613281 C 166.378906 216.574219 164.726562 214.917969 162.691406 214.917969 L 154.28125 214.917969 C 152.246094 214.917969 150.59375 216.574219 150.59375 218.613281 C 150.59375 220.652344 152.246094 222.304688 154.28125 222.304688 Z M 154.28125 222.304688 " fill-opacity="1" fill-rule="nonzero"/><path fill="#000000" d="M 225.09375 235.648438 L 178.726562 235.648438 C 176.691406 235.648438 175.039062 237.300781 175.039062 239.339844 C 175.039062 241.378906 176.691406 243.035156 178.726562 243.035156 L 225.09375 243.035156 C 227.128906 243.035156 228.78125 241.378906 228.78125 239.339844 C 228.78125 237.300781 227.128906 235.648438 225.09375 235.648438 Z M 225.09375 235.648438 " fill-opacity="1" fill-rule="nonzero"/><path fill="#000000" d="M 154.28125 243.035156 L 162.691406 243.035156 C 164.726562 243.035156 166.378906 241.378906 166.378906 239.339844 C 166.378906 237.300781 164.726562 235.648438 162.691406 235.648438 L 154.28125 235.648438 C 152.246094 235.648438 150.59375 237.300781 150.59375 239.339844 C 150.59375 241.378906 152.246094 243.035156 154.28125 243.035156 Z M 154.28125 243.035156 " fill-opacity="1" fill-rule="nonzero"/><g clip-path="url(#6c5c770999)"><path fill="#000000" d="M 370.226562 187.675781 C 370.164062 87.617188 289.308594 6.886719 189.6875 6.886719 C 94.523438 6.886719 16.09375 80.714844 9.59375 175.058594 C 9.449219 176.984375 10.867188 178.84375 13.015625 179.003906 C 15.050781 179.152344 16.808594 177.585938 16.953125 175.574219 C 23.164062 85.113281 99.050781 14.257812 189.6875 14.257812 C 285.433594 14.285156 362.816406 91.828125 362.847656 187.675781 C 362.816406 283.542969 285.40625 361.066406 189.671875 361.09375 C 99.996094 361.09375 25.894531 293.753906 17.339844 204.472656 C 17.148438 202.449219 15.332031 200.941406 13.3125 201.148438 C 11.289062 201.34375 9.800781 203.144531 9.992188 205.167969 C 9.992188 205.183594 9.992188 205.183594 9.992188 205.199219 C 18.832031 297.179688 96.210938 368.46875 189.6875 368.46875 C 289.269531 368.46875 370.164062 287.757812 370.226562 187.675781 Z M 370.226562 187.675781 " fill-opacity="1" fill-rule="nonzero"/></g><path fill="#000000" d="M 12.855469 193.777344 L 12.914062 193.777344 C 14.949219 193.746094 16.570312 192.0625 16.554688 190.023438 C 16.527344 188.015625 14.859375 186.390625 12.867188 186.390625 L 12.808594 186.390625 C 10.742188 186.421875 9.152344 188.085938 9.179688 190.128906 C 9.195312 192.136719 10.847656 193.777344 12.855469 193.777344 Z M 12.855469 193.777344 " fill-opacity="1" fill-rule="nonzero"/><path fill="#000000" d="M 279.707031 72.484375 C 253.792969 52.152344 222.675781 41.414062 189.691406 41.414062 C 68.726562 41.414062 -0.21875 182.109375 74.667969 277.832031 C 76.035156 279.582031 78.621094 279.726562 80.179688 278.164062 L 121.605469 236.675781 L 121.605469 264.707031 C 121.605469 267.558594 122.417969 270.355469 123.875 272.761719 L 99.332031 297.34375 C 97.734375 298.976562 97.964844 301.527344 99.671875 302.867188 C 124.839844 322.605469 156.066406 333.941406 190.011719 333.941406 L 190.027344 333.941406 C 273.453125 333.699219 334.109375 265.785156 335.808594 189.800781 C 335.851562 187.761719 334.230469 186.066406 332.195312 186.019531 C 330.171875 185.929688 328.476562 187.617188 328.433594 189.625 C 326.898438 256.773438 274.734375 326.328125 190.101562 326.550781 C 158.988281 326.550781 130.855469 316.769531 107.53125 299.574219 L 129.105469 277.980469 C 131.507812 279.433594 134.285156 280.246094 137.125 280.246094 L 265.75 280.246094 C 274.265625 280.246094 281.105469 273.125 281.105469 264.453125 L 281.105469 248.039062 C 281.105469 243.566406 277.460938 239.914062 272.992188 239.914062 L 257.765625 239.914062 L 257.765625 149.128906 L 301.417969 105.394531 C 313.898438 122.296875 322.175781 141.015625 326.039062 161.019531 C 326.414062 163.027344 328.359375 164.347656 330.347656 163.945312 C 332.355469 163.574219 333.667969 161.625 333.285156 159.628906 C 328.945312 137.101562 319.328125 116.210938 304.707031 97.519531 C 303.371094 95.78125 300.769531 95.601562 299.191406 97.179688 L 257.765625 138.667969 L 257.765625 110.640625 C 257.765625 107.75 256.972656 104.992188 255.507812 102.585938 L 280.039062 78 C 281.605469 76.4375 281.449219 73.851562 279.707031 72.484375 Z M 257.769531 247.304688 L 272.992188 247.304688 C 273.390625 247.304688 273.730469 247.628906 273.730469 248.042969 L 273.730469 264.457031 C 273.730469 268.742188 270.476562 272.847656 265.75 272.847656 C 261.277344 272.847656 257.769531 269.21875 257.769531 264.871094 Z M 250.289062 97.367188 C 247.886719 95.898438 245.128906 95.101562 242.25 95.101562 C 242.238281 95.101562 113.097656 95.117188 113.09375 95.117188 C 112.988281 95.117188 112.8125 95.117188 112.578125 95.132812 C 104.550781 95.707031 98.265625 102.621094 98.265625 110.878906 L 98.265625 127.308594 C 98.265625 131.785156 101.910156 135.433594 106.382812 135.433594 L 121.605469 135.433594 L 121.605469 155.5 C 121.605469 157.535156 123.257812 159.191406 125.292969 159.191406 C 127.328125 159.191406 128.980469 157.535156 128.980469 155.5 C 128.980469 113.886719 128.980469 148.867188 128.980469 110.480469 C 128.980469 107.550781 128.144531 104.820312 126.71875 102.488281 L 242.25 102.488281 C 246.691406 102.488281 250.390625 106.113281 250.390625 110.644531 C 250.390625 129.839844 250.390625 249.414062 250.390625 264.871094 C 250.390625 267.800781 251.226562 270.53125 252.652344 272.867188 L 137.125 272.867188 C 134.957031 272.867188 132.921875 272.007812 131.386719 270.472656 C 129.839844 268.933594 128.984375 266.898438 128.984375 264.710938 C 128.984375 248.425781 128.984375 201.375 128.984375 185.046875 C 128.984375 183.007812 127.332031 181.355469 125.292969 181.355469 C 123.257812 181.355469 121.605469 183.007812 121.605469 185.046875 L 121.605469 226.230469 L 77.953125 269.949219 C 10.84375 178.765625 76.585938 48.800781 189.691406 48.800781 C 219.609375 48.800781 247.921875 58.109375 271.839844 75.773438 Z M 121.605469 110.480469 L 121.605469 128.046875 L 106.382812 128.046875 C 105.96875 128.046875 105.644531 127.722656 105.644531 127.308594 L 105.644531 110.878906 C 105.644531 106.121094 109.5 102.503906 113.183594 102.503906 C 113.398438 102.503906 113.566406 102.507812 113.785156 102.496094 C 118.109375 102.582031 121.605469 106.125 121.605469 110.480469 Z M 121.605469 110.480469 " fill-opacity="1" fill-rule="nonzero"/><path fill="#000000" d="M 327.988281 175.265625 C 328.136719 176.992188 329.46875 178.632812 331.972656 178.632812 C 334.007812 178.457031 335.511719 176.667969 335.351562 174.644531 C 335.171875 172.652344 333.34375 171.101562 331.367188 171.277344 C 329.394531 171.425781 327.828125 173.148438 327.988281 175.265625 Z M 327.988281 175.265625 " fill-opacity="1" fill-rule="nonzero"/><path fill="#000000" d="M 128.984375 170.273438 C 128.984375 170.761719 128.890625 171.234375 128.703125 171.6875 C 128.515625 172.136719 128.25 172.539062 127.902344 172.882812 C 127.554688 173.230469 127.15625 173.496094 126.707031 173.683594 C 126.253906 173.871094 125.785156 173.964844 125.292969 173.964844 C 124.804688 173.964844 124.335938 173.871094 123.882812 173.683594 C 123.429688 173.496094 123.03125 173.230469 122.6875 172.882812 C 122.339844 172.539062 122.074219 172.136719 121.886719 171.6875 C 121.699219 171.234375 121.605469 170.761719 121.605469 170.273438 C 121.605469 169.78125 121.699219 169.3125 121.886719 168.859375 C 122.074219 168.40625 122.339844 168.007812 122.6875 167.660156 C 123.03125 167.3125 123.429688 167.046875 123.882812 166.859375 C 124.335938 166.671875 124.804688 166.578125 125.292969 166.578125 C 125.785156 166.578125 126.253906 166.671875 126.707031 166.859375 C 127.15625 167.046875 127.554688 167.3125 127.902344 167.660156 C 128.25 168.007812 128.515625 168.40625 128.703125 168.859375 C 128.890625 169.3125 128.984375 169.78125 128.984375 170.273438 Z M 128.984375 170.273438 " fill-opacity="1" fill-rule="nonzero"/></svg>